<?xml version="1.0" encoding="UTF-8" standalone="no"?><!DOCTYPE svg PUBLIC "-//W3C//DTD SVG 1.1//EN" "http://www.w3.org/Graphics/SVG/1.1/DTD/svg11.dtd"><svg width="100%" height="100%" viewBox="0 0 2084 1800" version="1.1" xmlns="http://www.w3.org/2000/svg" xmlns:xlink="http://www.w3.org/1999/xlink" xml:space="preserve" xmlns:serif="http://www.serif.com/" style="fill-rule:evenodd;clip-rule:evenodd;stroke-linejoin:round;stroke-miterlimit:2;"><path d="M1475,67.081c86.087,-0 170.094,-0.461 254.094,0.156c58.894,0.433 117.793,1.832 176.661,3.719c65.516,2.101 125.378,62.761 127.478,128.301c0.488,15.259 0.201,30.544 0.2,45.817c-0.004,456.12 0.057,912.24 -0.105,1368.36c-0.025,70.426 -40.922,122.115 -109.288,137.177c-21.417,4.718 -43.81,7.001 -65.758,7.017c-540.123,0.394 -1080.25,0.513 -1620.37,-0.171c-27.904,-0.035 -57.614,-2.861 -83.331,-12.66c-59.737,-22.763 -87.245,-72.149 -87.413,-133.713c-0.995,-364.477 -0.541,-728.958 -0.572,-1093.44c-0.009,-102.054 -0.17,-204.109 0.036,-306.162c0.164,-81.265 58.846,-140.482 140.354,-140.749c421.976,-1.387 843.954,-2.468 1268.01,-3.654m-1266.95,180.981l0,1364.76l1683.52,0l-0,-1400.57l-1683.52,0c-0,11.243 -0,21.471 -0.001,35.812Z" style="fill:#cbcbcb;fill-rule:nonzero;"/><path d="M208.053,246.006c-0,-12.285 -0,-22.513 -0,-33.756l1683.52,0l-0,1400.57l-1683.52,0c0,-454.608 0,-909.685 0.001,-1366.82m321.675,993.141c30.637,31.678 61.274,63.355 88.152,91.145c143.003,-142.547 282.339,-281.437 418.345,-417.008c-136.306,-136.514 -274.281,-274.7 -410.103,-410.729c-32.039,31.962 -65.79,65.63 -101.722,101.475c103.69,103.396 208.617,208.025 316.551,315.652c-7.519,5.8 -14.162,9.871 -19.528,15.222c-94.386,94.125 -188.684,188.341 -282.697,282.839c-5.048,5.074 -7.423,12.809 -8.998,21.404m535.95,-47.197c-5.23,3.667 -14.913,7.223 -15.009,11.019c-1.077,42.768 -0.682,85.572 -0.682,129.105l561.393,0l0,-140.123c-181.392,0 -361.575,0 -545.702,-0.001Z" style="fill:#333334;fill-rule:nonzero;"/><path d="M528.706,1238.1c2.597,-7.546 4.972,-15.281 10.02,-20.355c94.013,-94.498 188.311,-188.714 282.697,-282.839c5.366,-5.351 12.009,-9.422 19.528,-15.222c-107.934,-107.627 -212.861,-212.256 -316.551,-315.652c35.932,-35.845 69.683,-69.513 101.722,-101.475c135.822,136.029 273.797,274.215 410.103,410.729c-136.006,135.571 -275.342,274.461 -418.345,417.008c-26.878,-27.79 -57.515,-59.467 -89.174,-92.194Z" style="fill:#879ffb;fill-rule:nonzero;"/><path d="M1067.65,1191.95c182.155,0 362.338,0 543.73,0l0,140.123l-561.393,0c0,-43.533 -0.395,-86.337 0.682,-129.105c0.096,-3.796 9.779,-7.352 16.981,-11.018Z" style="fill:#889ffa;fill-rule:nonzero;"/></svg>